<svg xmlns="http://www.w3.org/2000/svg" width="470.7" height="370.01" viewBox="0 0 470.7 370.01"><title>eye-hide-3</title><rect x="84.9" y="218.13" width="480.85" height="42.43" transform="translate(-158.6 245.81) rotate(-45)" fill="#747474"/><path d="M168.26,306.4,227.71,247a97.64,97.64,0,0,1-1.85-19c0-53,42.24-95.93,94.14-95.93a92.34,92.34,0,0,1,20.33,2.26l33.91-33.91A217,217,0,0,0,320,93.51c-86,0-153.08,51.27-235.35,134.49C113.12,256.6,139.76,283.93,168.26,306.4Z" transform="translate(-84.65 -54.33)" fill="#747474"/><path d="M418.17,116.5l-37.9,37.9A96.51,96.51,0,0,1,414.14,228c0,53-42.24,95.93-94.14,95.93A93.37,93.37,0,0,1,246.64,288L203.76,330.9C237,350.42,274.15,362.49,320,362.49c105,0,182.19-80.27,235.35-133C519.72,189,474.37,143.28,418.17,116.5Z" transform="translate(-84.65 -54.33)" fill="#747474"/></svg>