<svg xmlns="http://www.w3.org/2000/svg" width="470.7" height="370" viewBox="0 0 470.7 370"><title>eye-show-3</title><path d="M320,93.51c-86,0-153.08,51.27-235.35,134.49C155.47,299.13,214.93,362.49,320,362.49s182.19-80.27,235.35-133C500.93,167.69,423.81,93.51,320,93.51Zm0,230.41c-51.9,0-94.14-43.08-94.14-95.93S268.1,132.07,320,132.07s94.14,43.08,94.14,95.93S371.9,323.93,320,323.93Z" transform="translate(-84.65 -54)" fill="#747474"/><path d="M320,194.38a33.73,33.73,0,0,1,8-21.75,50.14,50.14,0,0,0-8-.63c-30.26,0-55,25.11-55,56s24.69,56,55,56,55-25.11,55-56c0-2.42-.21-4.83-.42-7.25A33.66,33.66,0,0,1,320,194.38Z" transform="translate(-84.65 -54)" fill="#747474"/><rect x="370.35" width="25" height="6" fill="none"/><rect x="85.35" y="365" width="26" height="5" fill="none"/></svg>